<svg width="135" height="169" viewBox="0 0 135 169" fill="none" xmlns="http://www.w3.org/2000/svg">
<path d="M79.7428 140.667C74.346 144.165 70.415 146.547 67.9498 147.812C66.0509 148.812 64.4685 148.479 63.2026 146.813C61.97 145.147 61.8867 143.998 62.9528 143.365C65.5845 141.766 68.816 139.451 72.647 136.419C76.3782 133.454 78.9433 131.222 80.3425 129.723C77.9106 126.758 76.095 124.776 74.8957 123.777L78.8933 120.778L84.6399 119.129L83.5406 122.577C84.007 122.311 85.5061 121.728 88.0379 120.828L87.5882 125.326L86.6887 126.225L91.0362 132.521C89.3705 134.121 85.606 136.836 79.7428 140.667Z" fill="#763A00"/>
<path d="M133.611 45.2232C133.544 55.2173 133.628 62.5629 133.861 67.2601C128.131 68.5261 121.168 70.5082 112.973 73.2066C103.212 76.438 95.7333 79.4862 90.5364 82.3512L95.1836 89.0972L101.23 97.1924C95.4668 101.023 91.2859 104.038 88.6875 106.237L97.882 116.531L87.5881 125.326L88.0378 120.828C85.506 121.728 84.0069 122.311 83.5405 122.577L84.6399 119.129L78.8933 120.778L83.8403 116.581C80.7088 114.649 76.8445 111.917 72.2472 108.386L82.9409 96.193L70.3983 81.6016L54.6576 63.9621C85.9058 43.8073 112.307 30.8483 133.861 25.0851C133.727 30.7817 133.644 37.4944 133.611 45.2232Z" fill="#FFE100"/>
<path d="M78.8933 120.629L84.5399 118.43L85.1396 118.48L85.2395 118.93L84.1901 121.728L87.738 120.129C88.3044 119.929 88.5875 120.079 88.5875 120.579C88.5542 121.911 88.321 123.494 87.8879 125.326L86.8885 126.075L87.3882 121.628C86.5554 121.828 85.3228 122.278 83.6904 122.977C83.0575 123.21 82.8243 123.027 82.9908 122.428L83.8403 119.879C81.1419 120.712 79.0931 121.378 77.694 121.878L78.8933 120.629Z" fill="#763A00"/>
<path d="M80.0926 140.467L67.8499 147.413C70.5149 145.714 74.2794 142.899 79.1432 138.968L89.3871 130.173L91.1361 132.521C88.6376 134.82 84.9564 137.469 80.0926 140.467Z" fill="#542400"/>
<path d="M112.573 73.4065C104.378 76.1715 96.7661 79.0032 89.7369 81.9014C93.7013 79.203 100.431 75.6385 109.925 71.2078C120.352 66.344 128.231 63.3124 133.561 62.1132L133.761 67.2601C128.464 68.3928 121.402 70.4416 112.573 73.4065Z" fill="#F9BE00"/>
<path d="M98.4818 93.7445L101.33 97.2424L87.7881 105.987C93.0516 99.4911 96.6162 95.4102 98.4818 93.7445Z" fill="#F9BE00"/>
<path d="M97.6822 116.631L93.3848 120.079L88.0879 124.426L88.3877 122.428C91.4859 117.764 93.6846 114.765 94.9838 113.433L97.6822 116.631Z" fill="#F9BE00"/>
<path d="M88.0878 124.426L86.089 125.925L88.3876 122.427L88.0878 124.426Z" fill="#542400"/>
<path d="M134.71 24.5854C134.477 27.7835 134.394 34.7961 134.46 45.623L134.66 67.7599L134.311 68.2096C127.148 69.742 119.403 71.9241 111.074 74.7557C103.246 77.4542 96.7827 80.0859 91.6857 82.6511C93.8178 85.8825 97.3157 90.713 102.18 97.1425C102.379 97.3757 102.346 97.5756 102.08 97.7421C96.816 101.207 92.7351 104.072 89.8368 106.337L98.7316 116.481C98.9314 116.681 98.9148 116.881 98.6816 117.081L92.0855 122.527C89.7868 124.426 88.3211 125.709 87.6881 126.375L91.8356 132.522L91.7857 133.071C90.4864 134.37 87.5881 136.469 83.0908 139.368C78.327 142.399 73.4299 145.247 68.3995 147.912L67.5 148.012C67.4001 147.813 67.5833 147.579 68.0497 147.313C80.0759 139.851 87.4049 134.903 90.0367 132.472L85.9891 126.525C85.8558 126.325 85.8725 126.142 86.0391 125.975L90.2366 121.928L96.4829 116.531C92.7518 112.034 89.8202 108.719 87.6881 106.587C87.4549 106.354 87.4715 106.154 87.7381 105.987C91.769 102.756 95.8333 99.7909 99.9308 97.0925C95.7 91.4292 92.2354 86.5654 89.537 82.5012C89.3371 82.2347 89.3871 82.0348 89.6869 81.9015C94.9505 79.2364 101.48 76.5047 109.275 73.7064C117.904 70.5749 125.766 68.2429 132.861 66.7105C132.562 62.1799 132.428 55.234 132.462 45.8728C132.495 36.7116 132.645 30.1988 132.911 26.3344C121.951 29.3326 108.659 34.7794 93.0349 42.6747C78.4436 50.037 66.2175 57.2661 56.3566 64.3619C60.8873 69.2257 70.0652 79.7861 83.8903 96.0431C84.0569 96.243 84.0569 96.4263 83.8903 96.5928L78.4436 102.639L73.4465 108.336C79.3763 112.8 83.0575 115.482 84.49 116.381C84.7898 116.581 84.8065 116.814 84.54 117.081L76.3448 123.877C77.9105 125.442 79.5429 127.375 81.2419 129.673C81.4085 129.873 81.4085 130.056 81.2419 130.223C80.0426 131.655 77.4775 133.837 73.5465 136.769C69.6821 139.634 66.3007 141.883 63.4025 143.515L62.6029 143.615C62.4697 143.448 62.5863 143.232 62.9527 142.965L72.2472 136.019C75.8451 133.188 78.2104 131.122 79.343 129.823C77.4441 127.358 75.7452 125.476 74.246 124.176C74.0128 123.943 74.0295 123.727 74.296 123.527L82.5411 116.781C79.3097 114.649 75.5786 112.017 71.3478 108.886C71.1146 108.686 71.0979 108.486 71.2978 108.286L81.7916 96.243L67.6499 79.8028L53.8581 64.4119C53.6582 64.1787 53.6749 63.9621 53.9081 63.7622C63.9022 56.3666 76.8445 48.7211 92.7351 40.8258C109.059 32.6973 122.884 27.1339 134.211 24.1357C134.61 24.0358 134.777 24.1857 134.71 24.5854Z" fill="#0D131A"/>
<path d="M13.432 12.7923C11.3999 13.925 9.6176 16.5401 8.08518 20.6377C6.78595 24.1023 6.03639 27.467 5.83651 30.7317C4.30408 26.1344 3.12145 20.1546 2.28861 12.7923C1.42245 5.26344 1.53905 1.34909 2.6384 1.04926C3.70444 0.74944 5.3368 1.8821 7.5355 4.44725C9.30112 6.5127 11.2666 9.29438 13.432 12.7923Z" fill="#0D131A"/>
<path d="M92.1355 8.09509C93.2349 9.86071 93.6846 13.1254 93.4847 17.8893C93.2848 22.0868 92.7185 25.7347 91.7857 28.8328C89.3205 31.4646 86.3889 34.0631 82.9909 36.6282C79.1599 39.5598 75.8951 41.5087 73.1967 42.4748C76.2949 44.9733 78.7768 47.8549 80.6423 51.1196C81.8749 53.2517 82.9576 55.8668 83.8904 58.965C85.4895 63.9954 85.5894 69.3588 84.1902 75.0555C82.9576 80.0525 81.0088 83.9002 78.3437 86.5987C72.214 92.3286 64.2853 95.8432 54.5578 97.1424C46.2294 98.2751 38.2174 97.6921 30.522 95.3934C27.2239 94.2941 24.1924 92.3119 21.4274 89.447C18.3292 86.2822 16.1638 82.5844 14.9312 78.3535C13.7319 74.2893 13.4821 70.1084 14.1816 65.8109C14.7147 62.413 15.7974 59.1649 17.4297 56.0667C15.3643 53.7348 13.049 49.6872 10.4838 43.9239C8.35176 39.0268 6.83599 34.8959 5.93652 31.5312C6.10309 26.6341 7.06919 22.37 8.83481 18.7388C10.1674 16.0071 11.6332 14.0749 13.2322 12.9422C15.864 16.7067 18.4791 21.9202 21.0776 28.583C23.8093 35.5455 25.3584 41.2088 25.7248 45.5729C30.4887 41.2088 36.5018 38.2439 43.7641 36.6782C50.3936 35.2457 56.2068 35.279 61.2038 36.7781C64.6018 31.3813 69.8154 25.5348 76.8446 19.2385C83.2075 13.5752 88.3045 9.86071 92.1355 8.09509Z" fill="#FFE100"/>
<path d="M34.8693 92.8949C41.2989 89.7967 46.9955 87.698 51.9592 86.5986C55.9569 85.7325 61.2704 85.3161 67.8998 85.3494C74.4293 85.3494 77.9105 85.7658 78.3436 86.5986C80.2092 90.1632 82.0748 95.1936 83.9403 101.69C85.9391 108.752 87.4049 115.731 88.3377 122.627C90.703 140.483 88.7708 151.743 82.5411 156.407C77.9772 159.872 69.9986 159.489 58.6053 155.258C53.6083 153.459 49.9271 152.276 47.5618 151.71C44.5303 151.011 41.4155 150.727 38.2174 150.861C34.9859 150.994 32.121 150.627 29.6225 149.761C27.3571 148.995 25.7248 147.979 24.7253 146.713C22.46 143.781 21.6105 138.834 22.1769 131.872C22.6099 126.642 23.676 121.328 25.375 115.931L28.2233 107.836L31.0216 100.291C31.3881 99.3911 32.1376 97.892 33.2703 95.7932L34.8693 92.8949Z" fill="#FFE100"/>
<path d="M34.8693 92.895C35.9354 92.5286 36.7682 93.528 37.3679 95.8933C38.0008 98.3918 37.8842 100.99 37.0181 103.689C36.0853 106.554 34.303 109.352 31.6712 112.084C29.0728 114.815 26.974 116.098 25.375 115.931C23.6093 115.965 21.877 115.698 20.178 115.132C18.6789 114.599 17.896 114.099 17.8294 113.633C17.8294 112.933 18.1959 112.317 18.9288 111.784L17.1298 108.486C16.5302 107.287 16.2637 106.587 16.3303 106.387C16.4969 106.121 17.1465 106.037 18.2792 106.137C18.2458 104.172 18.9787 103.589 20.4779 104.388C20.5445 102.822 21.1941 102.606 22.4267 103.739C23.4261 102.14 24.7587 100.524 26.4243 98.8915C27.8568 97.459 29.2227 96.293 30.5219 95.3935C31.5879 94.3608 33.0371 93.528 34.8693 92.895Z" fill="#FFE100"/>
<path d="M92.1355 8.0951C95.6001 6.29617 99.148 4.81371 102.779 3.64773C107.277 2.21525 109.892 2.04868 110.625 3.14803C111.557 4.5472 109.459 8.57815 104.328 15.2409C99.5977 21.3373 95.3003 26.0345 91.4359 29.3325C92.6352 25.6347 93.3181 21.9036 93.4847 18.1392C93.6513 14.1748 93.2015 10.8268 92.1355 8.0951Z" fill="#0D131A"/>
<path d="M16.88 146.413C18.6456 144.947 20.5445 143.898 22.5766 143.265C24.4422 147.696 28.4565 150.211 34.6195 150.811C31.6879 152.276 28.2066 153.326 24.1757 153.959C20.1114 154.558 17.7295 154.392 17.0299 153.459C15.6641 153.792 14.8645 153.609 14.6313 152.909C14.4314 152.343 14.5647 151.71 15.0311 151.011C14.065 149.745 14.6813 148.212 16.88 146.413Z" fill="#FFE100"/>
<path d="M73.6964 158.706C76.3948 158.806 78.86 158.34 81.092 157.307C83.1908 156.341 84.6732 155.092 85.5394 153.559C87.2717 156.424 88.3377 159.139 88.7375 161.704C89.1373 164.336 88.7375 166.002 87.5382 166.701C87.5049 167.667 87.0552 168.15 86.189 168.15C85.4228 168.117 84.7898 167.801 84.2901 167.201C83.8904 168.3 82.2913 167.817 79.493 165.752C76.628 163.62 74.6958 161.271 73.6964 158.706Z" fill="#FFE100"/>
<path d="M41.8652 78.1537L45.2632 75.955C45.9295 75.4553 46.9289 75.0056 48.2614 74.6058L51.0598 74.1061L55.3073 73.6564C55.2073 74.6225 54.8409 75.5886 54.2079 76.5547L48.7112 76.8545C46.8123 77.5541 45.6297 78.6035 45.1633 80.0026L41.8652 78.1537Z" fill="#B50005"/>
<path d="M45.1133 79.9526C45.7796 78.6534 46.9955 77.6373 48.7611 76.9044C50.6933 76.1049 52.5422 76.005 54.3078 76.6046C51.5761 80.2025 48.5113 81.3185 45.1133 79.9526Z" fill="#E50012"/>
<path d="M17.9294 112.933C18.4624 113.333 19.6617 113.549 21.5273 113.583L26.1245 113.083L25.425 115.831C23.5927 115.898 21.7771 115.615 19.9782 114.982C18.0793 114.316 17.3964 113.633 17.9294 112.933Z" fill="#F9BE00"/>
<path d="M48.1615 98.2418C48.1282 97.7754 49.2775 97.359 51.6094 96.9926L55.2073 97.1924C55.2406 97.5922 54.7909 98.0086 53.8581 98.4417L51.6594 99.0913L49.5107 98.9914C48.6112 98.8248 48.1615 98.575 48.1615 98.2418Z" fill="#F9BE00"/>
<path d="M22.1769 134.77C23.3762 143.665 28.2733 147.763 36.8682 147.063C41.199 146.697 45.3798 146.996 49.4108 147.962C52.8754 148.795 57.0563 150.344 61.9534 152.61C67.4834 155.208 72.9469 155.508 78.3437 153.509C85.2396 150.977 89.004 144.881 89.637 135.22C89.5704 142.782 88.5709 148.329 86.6388 151.86C83.5406 157.623 77.794 159.739 69.399 158.206C66.6006 157.707 61.3371 156.174 53.6083 153.609C47.2787 151.51 43.1312 150.578 41.1657 150.811C34.9693 151.544 30.1722 150.661 26.7742 148.162C23.0097 145.397 21.4773 140.933 22.1769 134.77Z" fill="#F9BE00"/>
<path d="M18.579 145.364C18.7455 145.131 19.4451 144.781 20.6777 144.315L22.9264 143.515C23.5927 145.447 25.2417 147.163 27.8735 148.662C30.2721 150.028 32.5041 150.711 34.5695 150.711C32.4708 151.843 30.1222 152.693 27.5237 153.259C24.4255 148.629 21.444 145.997 18.579 145.364Z" fill="#F9BE00"/>
<path d="M77.4941 164.053L75.4453 161.554C74.779 160.555 74.3127 159.605 74.0461 158.706C78.9099 159.206 82.7077 157.507 85.4394 153.609C86.5388 155.308 87.205 156.541 87.4382 157.307C85.2062 157.44 83.1574 158.123 81.2919 159.356C79.393 160.588 78.1271 162.154 77.4941 164.053Z" fill="#F9BE00"/>
<path d="M26.0746 63.0126C27.6403 62.5795 29.1394 62.846 30.5719 63.8121C31.9711 64.7782 32.9205 66.1774 33.4202 68.0096C33.9533 69.7753 33.8033 71.3743 32.9705 72.8068C32.2043 74.1393 31.0217 75.0555 29.4226 75.5552C27.8236 76.0216 26.2412 75.855 24.6754 75.0555C23.143 74.2559 22.1602 73.0733 21.7272 71.5076C21.1941 69.6753 21.3274 67.943 22.1269 66.3106C22.9265 64.6116 24.2423 63.5123 26.0746 63.0126Z" fill="#0D131A"/>
<path d="M25.7747 63.7123L28.0234 63.8122C28.723 64.1454 29.206 64.6617 29.4725 65.3613C29.739 66.1275 29.739 66.8604 29.4725 67.56C29.1727 68.2929 28.623 68.8093 27.8235 69.1091L25.5748 69.0091C24.8752 68.676 24.4088 68.1263 24.1756 67.3601C23.9425 66.5606 23.9924 65.811 24.3256 65.1115C24.6254 64.4119 25.1084 63.9455 25.7747 63.7123Z" fill="white"/>
<path d="M61.8533 51.7194C63.7189 51.1197 65.5345 51.3196 67.3001 52.319C69.1324 53.3184 70.2484 54.8342 70.6481 56.8663C71.0146 58.5653 70.7647 60.1977 69.8986 61.7634C69.0657 63.3292 67.8665 64.3786 66.3007 64.9116C64.4685 65.5445 62.7195 65.4279 61.0538 64.5618C59.4548 63.7289 58.3721 62.4797 57.8057 60.814C57.1395 58.7486 57.2394 56.833 58.1056 55.0674C58.9051 53.3684 60.1544 52.2524 61.8533 51.7194Z" fill="#0D131A"/>
<path d="M61.5036 52.4688C62.2365 52.1357 62.986 52.1357 63.7522 52.4688C64.5184 52.7687 65.0515 53.3017 65.3513 54.0679C65.6178 54.7675 65.6178 55.5004 65.3513 56.2666C65.0848 57.0994 64.5684 57.6491 63.8022 57.9156C63.0027 58.2154 62.2531 58.2154 61.5535 57.9156C60.8206 57.6158 60.3043 57.0994 60.0045 56.3665C59.7046 55.6336 59.688 54.8841 59.9545 54.1179C60.221 53.3517 60.7374 52.802 61.5036 52.4688Z" fill="white"/>
<path d="M44.8135 70.858C44.7801 70.7248 45.1299 70.5582 45.8628 70.3583L46.9622 70.1584L46.6624 70.8081L46.0127 71.2578L45.3132 71.2078L44.8135 70.858Z" fill="#0D131A"/>
<path d="M78.9932 64.112C80.2591 64.6117 81.092 65.9276 81.4918 68.0596C81.9248 70.1917 81.7583 72.2738 80.992 74.3059C80.1592 76.6046 78.86 78.3202 77.0944 79.4529C75.3287 80.5856 73.6964 80.7854 72.1973 80.0525C70.6981 79.353 69.7154 78.0038 69.249 76.0049C68.7493 73.9062 68.9991 71.7741 69.9986 69.6087C71.0646 67.3101 72.4804 65.6444 74.246 64.6117C75.9117 63.6789 77.4941 63.5123 78.9932 64.112Z" fill="#E50012"/>
<path d="M26.0246 83.1008C27.4904 84.9664 28.4732 86.8153 28.9729 88.6475C29.4726 90.5797 29.2561 91.879 28.3233 92.5452C27.4238 93.1782 26.1412 92.995 24.4756 91.9956C23.0431 91.1627 21.5107 89.8468 19.8783 88.0479C18.4458 86.4155 17.4464 84.7332 16.8801 83.0009C16.3137 81.2353 16.397 79.986 17.1299 79.2531C18.0294 78.4203 19.3952 78.4036 21.2275 79.2031C22.9931 79.9693 24.5922 81.2686 26.0246 83.1008Z" fill="#E50012"/>
<path d="M6.08636 2.19865C10.084 5.9964 13.965 11.5764 17.7295 18.9387C22.1935 27.7002 25.0252 36.4451 26.2244 45.1732L25.225 46.0727C23.8592 37.3112 20.8276 28.3998 16.1304 19.3385C12.5659 12.4093 8.98465 6.9625 5.38677 2.99818C4.35405 1.93214 3.6045 1.41578 3.13811 1.44909C2.53846 1.51572 2.22198 2.39853 2.18867 4.09753C2.0221 9.8941 3.20473 17.6895 5.73657 27.4837C8.80142 39.3433 12.7657 48.6878 17.6295 55.5171L17.1298 56.7664C11.833 49.9371 7.58547 40.6259 4.38737 28.8329C1.58902 18.4724 0.473015 10.1773 1.03935 3.94761C1.20592 1.74892 1.72228 0.532968 2.58843 0.299773C3.38796 0.0998909 4.55393 0.73285 6.08636 2.19865Z" fill="#0D131A"/>
<path d="M6.53607 32.4807L5.48669 29.9322C5.78652 25.9013 6.58604 22.3534 7.88527 19.2885C9.15119 16.257 10.8169 13.9417 12.8823 12.3427L13.6319 13.392C11.4665 15.091 9.76749 17.6728 8.53489 21.1374C7.3356 24.4688 6.66933 28.2499 6.53607 32.4807Z" fill="#0D131A"/>
<path d="M94.4341 25.435C101.297 18.2725 106.244 12.0429 109.275 6.74601C110.241 5.08033 110.541 3.99764 110.175 3.49793L106.427 3.39799C100.597 4.53065 94.051 7.49557 86.7886 12.2927C77.1277 18.6556 68.7826 26.8674 61.7534 36.9282L60.6041 36.5784C67.9998 25.6848 76.4448 17.1232 85.9391 10.8936C93.0349 6.22965 99.7643 3.36468 106.127 2.29864C108.992 1.79894 110.708 1.98216 111.274 2.84832C111.774 3.64784 111.457 5.1303 110.325 7.29569C107.16 13.2255 102.096 19.755 95.1337 26.8841C87.2717 34.9127 80.1426 40.2595 73.7463 42.9246L72.697 42.1751C78.9932 39.51 86.239 33.9299 94.4341 25.435Z" fill="#0D131A"/>
<path d="M92.4853 28.2333L90.6364 29.7823C92.1355 25.0851 92.9017 20.5545 92.935 16.1904C92.935 12.5592 92.5352 10.0607 91.7357 8.69483L92.7351 7.99524C93.6013 9.49435 94.101 11.9096 94.2342 15.241C94.3675 19.3718 93.7845 23.7026 92.4853 28.2333Z" fill="#0D131A"/>
<path d="M80.4424 92.5951C80.2092 91.8289 80.2092 91.3958 80.4424 91.2959C80.7089 91.1959 80.9754 91.5291 81.2419 92.2953C87.0718 108.452 89.9534 122.91 89.8868 135.67C89.7868 148.562 86.6553 156.207 80.4923 158.606C77.1276 159.905 72.3138 159.855 66.0509 158.456C62.2531 157.623 57.2727 156.074 51.1097 153.809C48.5446 152.876 46.5791 152.26 45.2132 151.96L39.0169 151.51L31.1715 151.011C28.1733 150.344 25.7081 148.928 23.7759 146.763C21.3107 144.065 20.6944 138.251 21.927 129.323C23.1596 120.195 25.9746 110.734 30.372 100.94C30.6718 100.274 30.955 99.9907 31.2215 100.091C31.4547 100.191 31.4214 100.574 31.1215 101.24C27.0906 111.101 24.4921 120.379 23.3261 129.074C22.2268 137.602 22.8098 143.132 25.0751 145.664C26.9074 147.729 29.1227 149.062 31.7212 149.661L39.0169 150.211L45.8128 150.661C47.1787 150.927 49.0942 151.544 51.5594 152.51C64.9182 157.573 74.346 159.056 79.8427 156.957C85.4727 154.825 88.2377 147.446 88.1378 134.82C88.0712 122.827 85.506 108.752 80.4424 92.5951Z" fill="#0D131A"/>
<path d="M29.7224 95.1437L31.1716 95.5934C27.7069 97.992 24.6587 101.123 22.027 104.988C21.6605 105.554 21.3774 105.787 21.1775 105.687C20.9776 105.554 21.0609 105.204 21.4273 104.638C23.8259 100.54 26.5909 97.3757 29.7224 95.1437Z" fill="#0D131A"/>
<path d="M37.9176 78.7033C37.6177 78.5035 37.5344 78.3202 37.6677 78.1537L38.3673 78.1037C39.5999 78.5701 41.4488 77.9205 43.914 76.1549C45.3465 75.1221 46.5958 74.4392 47.6618 74.1061C48.7278 73.7396 50.2436 73.5231 52.2091 73.4565L55.5571 72.9567C56.4566 72.6236 57.0229 72.0573 57.2561 71.2578C57.4227 70.858 57.6059 70.6914 57.8058 70.7581C58.0057 70.7914 58.0723 71.0246 58.0057 71.4576C57.6059 73.4898 55.6737 74.5725 52.2091 74.7057L48.0116 75.3054C47.0122 75.6385 45.8629 76.2715 44.5636 77.2042C41.6987 79.2697 39.4833 79.7694 37.9176 78.7033Z" fill="#0D131A"/>
<path d="M42.4149 77.7539C45.08 79.8194 47.5452 80.4523 49.8105 79.6528C51.0098 79.2197 52.0592 78.4535 52.9587 77.3542C53.8581 76.2548 54.4744 75.0222 54.8076 73.6563L56.1568 73.4065C55.9236 74.9722 55.224 76.4214 54.058 77.7539C52.9587 79.0198 51.6594 79.936 50.1603 80.5023L45.8629 80.7522C44.2971 80.419 42.7814 79.6695 41.3156 78.5035L42.4149 77.7539Z" fill="#0D131A"/>
<path d="M15.0312 147.563C16.5636 145.564 19.0454 143.931 22.4767 142.666L22.9265 143.865C19.9949 145.031 17.8128 146.347 16.3804 147.812C15.1477 149.112 14.7813 150.078 15.281 150.711L14.5314 151.76C13.4654 150.794 13.632 149.395 15.0312 147.563Z" fill="#0D131A"/>
<path d="M18.9787 147.413C19.4451 147.179 19.7283 147.179 19.8282 147.413C19.9615 147.613 19.7949 147.846 19.3285 148.112C18.1959 148.779 17.2131 149.578 16.3803 150.511C15.4808 151.477 15.131 152.21 15.3309 152.71L17.0299 152.859L17.4796 153.959L15.4308 154.159C14.6313 154.059 14.1483 153.776 13.9817 153.309C13.6486 152.41 14.0983 151.31 15.3309 150.011C16.4302 148.845 17.6462 147.979 18.9787 147.413Z" fill="#0D131A"/>
<path d="M33.8699 150.661L35.9187 150.961C32.2209 152.793 28.0733 154.025 23.4761 154.658C18.9454 155.258 16.4969 154.942 16.1304 153.709C15.9305 153.076 16.3469 152.276 17.3797 151.31C18.479 150.244 19.7616 149.528 21.2274 149.162C21.6938 149.062 21.9603 149.112 22.0269 149.312C22.0935 149.545 21.9103 149.745 21.4772 149.911C20.3779 150.344 19.4285 150.894 18.6289 151.56C17.8627 152.227 17.5296 152.76 17.6295 153.159C17.7628 153.726 19.4285 153.859 22.6266 153.559C26.3577 153.193 30.1055 152.227 33.8699 150.661Z" fill="#0D131A"/>
<path d="M72.9968 158.656L74.446 158.556C75.3454 160.988 77.0111 163.153 79.443 165.052C81.6084 166.751 83.0076 167.418 83.6405 167.051C83.9404 166.851 83.8904 166.202 83.4906 165.102C83.1242 164.003 82.5412 162.804 81.7417 161.504C81.5085 161.171 81.4918 160.938 81.6917 160.805C81.8583 160.705 82.0748 160.805 82.3413 161.105C83.374 162.337 84.1069 163.736 84.54 165.302C84.9731 166.935 84.8731 167.917 84.2402 168.25C83.2741 168.75 81.4918 168.034 78.8933 166.102C75.9951 163.936 74.0295 161.454 72.9968 158.656Z" fill="#0D131A"/>
<path d="M85.4394 160.455C85.2395 159.989 85.2562 159.705 85.4893 159.606C85.6892 159.506 85.9058 159.672 86.139 160.105C87.3049 162.304 87.9212 164.253 87.9879 165.952C88.0212 167.418 87.6714 168.3 86.9385 168.6L85.5893 168.65C84.9896 168.517 84.4566 168.2 83.9902 167.701L84.4899 166.601C85.3228 167.434 85.9891 167.734 86.4888 167.501C86.8885 167.301 87.0218 166.601 86.8885 165.402C86.722 164.07 86.2389 162.421 85.4394 160.455Z" fill="#0D131A"/>
<path d="M85.0397 154.059L85.9391 152.959C87.7714 155.991 88.8874 158.956 89.2872 161.854C89.6869 165.019 89.0373 166.968 87.3383 167.701L87.4882 166.302C88.3211 165.502 88.4876 163.87 87.9879 161.404C87.4882 159.006 86.5055 156.557 85.0397 154.059Z" fill="#0D131A"/>
<path d="M54.4079 76.0549L53.9581 76.9544C52.4923 76.488 50.8766 76.588 49.111 77.2542C47.3454 77.9205 46.1794 78.8699 45.6131 80.1025L44.6136 79.8027C45.3132 78.3036 46.6291 77.1709 48.5613 76.4047C50.4935 75.6385 52.4423 75.5219 54.4079 76.0549Z" fill="#0D131A"/>
<path d="M18.529 53.3684C18.8955 52.8354 19.1953 52.6355 19.4285 52.7687C19.6617 52.9353 19.6117 53.2851 19.2786 53.8181C17.0133 57.6825 15.5808 61.6801 14.9811 65.811C14.3815 69.9752 14.648 74.1061 15.7807 78.2037C17.0133 82.6677 19.2286 86.4322 22.4267 89.497C25.5915 92.4952 29.5059 94.644 34.1698 95.9432C35.0693 96.2097 35.4857 96.4596 35.4191 96.6928L33.9699 96.8427C29.1727 95.9099 24.9586 93.7945 21.3274 90.4964C17.6962 87.1984 15.2477 83.2507 13.9817 78.6534C12.8158 74.4559 12.6325 70.1251 13.4321 65.6611C14.2316 61.1638 15.9306 57.0662 18.529 53.3684Z" fill="#0D131A"/>
<path d="M51.2597 35.2291C55.757 35.0959 59.788 35.6955 63.3525 37.028C63.9522 37.2612 64.2187 37.4944 64.152 37.7276L63.1027 37.8276C55.3739 35.6955 47.1787 36.1286 38.5172 39.1268C33.0204 40.9924 28.3899 43.6908 24.6254 47.222C24.159 47.6551 23.8425 47.7883 23.676 47.6218C23.4761 47.4219 23.5927 47.0888 24.0258 46.6224C27.557 42.6247 32.2209 39.6265 38.0175 37.6277C42.4482 36.1286 46.8623 35.329 51.2597 35.2291Z" fill="#0D131A"/>
<path d="M84.0903 56.5165C85.7226 61.1471 86.189 66.2108 85.4894 71.7075C84.6899 77.9372 82.4912 82.9342 78.8933 86.6987C78.4603 87.1651 78.1604 87.315 77.9939 87.1484C77.794 86.9818 77.8773 86.6487 78.2437 86.149C81.3752 82.0514 83.2741 77.121 83.9404 71.3578C84.54 66.1608 84.057 61.3803 82.4912 57.0162C80.1926 50.4535 76.3948 45.3065 71.098 41.5754C70.5316 41.1756 70.3317 40.8758 70.4983 40.6759C70.6316 40.476 70.998 40.5427 71.5977 40.8758C74.396 42.5082 76.8945 44.6902 79.0932 47.4219C81.2586 50.1536 82.9243 53.1852 84.0903 56.5165Z" fill="#0D131A"/>
<path d="M22.5767 103.289L21.977 104.038C21.5773 103.739 21.2941 103.622 21.1275 103.689L20.9276 104.288L20.6278 104.938L19.8783 104.738L19.1287 104.588C18.8955 104.688 18.7623 105.021 18.7289 105.587L18.5291 106.537H17.6296L16.88 106.687C16.7468 106.887 17.1299 107.77 18.0294 109.335L19.4285 111.784L18.8789 112.483C18.4791 112.883 18.2959 113.216 18.3292 113.483C18.3958 113.883 19.3452 114.299 21.1775 114.732L25.475 115.182L25.2251 116.381C23.7926 116.514 22.1103 116.248 20.1781 115.582C18.2459 114.949 17.2132 114.316 17.0799 113.683C16.98 113.083 17.3797 112.433 18.2792 111.734C16.3803 108.569 15.5475 106.703 15.7807 106.137C15.8806 105.904 16.1805 105.754 16.6802 105.687L17.9294 105.787C17.8628 105.354 17.8961 104.921 18.0294 104.488C18.1293 104.055 18.2959 103.772 18.5291 103.639L19.2786 103.539C19.6118 103.605 19.8949 103.722 20.1281 103.888C20.1947 103.122 20.4279 102.689 20.8277 102.589L21.6772 102.739L22.5767 103.289Z" fill="#0D131A"/>
<path d="M94.9338 98.7915C91.4358 103.222 87.155 106.32 82.0913 108.086C78.5934 109.285 74.6791 107.836 70.3483 103.739C65.9842 99.6077 64.8516 96.0765 66.9503 93.1449C69.0824 90.18 71.9807 87.2484 75.6452 84.3501C79.9093 80.9521 83.9236 78.7367 87.688 77.704C89.0539 75.5386 89.9367 74.406 90.3365 74.306L91.7856 74.6059C92.4852 74.939 93.1015 75.522 93.6345 76.3548C95.4001 76.588 96.8826 77.4042 98.0819 78.8034C99.3478 80.2359 100.031 82.0015 100.131 84.1002C100.331 89.2305 98.5983 94.1276 94.9338 98.7915Z" fill="#FFE100"/>
<path d="M99.5811 81.5017C101.447 86.5321 100.147 92.0455 95.6834 98.0419C91.4859 103.739 86.9386 106.92 82.0415 107.586C86.5722 105.488 90.703 101.64 94.4342 96.0431C98.132 90.4797 99.8476 85.6326 99.5811 81.5017Z" fill="#F9BE00"/>
<path d="M92.1355 74.306C92.8684 74.6392 93.4847 75.2055 93.9844 76.005C98.1819 76.5047 100.481 79.4197 100.88 84.7499C101.213 89.2139 99.731 93.7279 96.433 98.2918C92.8351 103.189 88.1878 106.537 82.4912 108.336L81.4418 108.236C81.3419 107.969 81.5917 107.72 82.1914 107.486C87.355 105.521 91.6358 102.256 95.0338 97.6922C98.3318 93.2615 99.8476 88.9973 99.5811 84.8998C99.2479 80.4357 97.3824 77.804 93.9844 77.0044C93.5513 76.9711 93.2682 76.8046 93.1349 76.5047C92.9017 76.0717 92.4853 75.7219 91.8856 75.4554L90.3366 75.2055C90.0367 75.3054 89.637 75.7718 89.1373 76.6047C88.6376 77.5041 88.2378 78.0039 87.938 78.1038C84.0403 79.6362 80.609 81.4518 77.6441 83.5506C74.1795 86.0158 70.8481 89.1639 67.65 92.995C67.2502 93.4614 66.9337 93.6113 66.7005 93.4447C66.5007 93.2781 66.5839 92.9284 66.9504 92.3953C70.4483 87.8647 74.1295 84.3001 77.9939 81.7017C80.7589 79.8361 83.8404 78.3536 87.2384 77.2543L88.4877 75.6552C89.0873 74.6891 89.637 74.1561 90.1367 74.0562C90.7696 73.8896 91.4359 73.9729 92.1355 74.306Z" fill="#0D131A"/>
<path d="M90.9862 77.2543L91.8856 77.1044C92.0522 77.2043 91.9689 77.4375 91.6358 77.804C91.2693 78.237 91.0861 78.5202 91.0861 78.6534C91.0861 78.8866 91.1861 79.1532 91.3859 79.453L91.6858 80.0526L91.286 80.6023C91.0195 80.9021 90.8862 81.2353 90.8862 81.6017C90.8862 82.0348 91.0195 82.4512 91.286 82.851L91.6858 83.6005L91.4359 84.2002C91.236 84.5333 91.1528 84.8331 91.1861 85.0996C91.2194 85.3661 91.4193 85.6993 91.7857 86.099L92.3854 86.8486L92.1355 87.5982C92.0022 87.9979 91.9689 88.3644 92.0356 88.6975L92.8351 89.3971L94.1843 89.8468C94.6174 89.8801 94.8339 90.0134 94.8339 90.2466L94.2842 90.6464L92.4353 90.3465C91.7024 90.0467 91.2527 89.6469 91.0861 89.1472C90.9862 88.8807 90.9695 88.5309 91.0362 88.0979C91.1028 87.6315 91.2527 87.265 91.4859 86.9985L90.6364 86.2989C90.3699 85.9658 90.22 85.6327 90.1867 85.2995C90.0534 84.6999 90.2866 84.1335 90.8862 83.6005C90.2533 83.0675 89.8868 82.4512 89.7869 81.7516C89.7203 81.0187 90.0534 80.4024 90.7863 79.9027C90.3532 79.5696 90.1367 79.1198 90.1367 78.5535C90.1034 78.3203 90.1867 78.0705 90.3865 77.804L90.9862 77.2543Z" fill="#0D131A"/>
<path d="M18.529 53.3684C18.8955 52.8354 19.1953 52.6355 19.4285 52.7687C19.6617 52.9353 19.6117 53.2851 19.2786 53.8181C17.0133 57.6825 15.5808 61.6801 14.9811 65.811C14.3815 69.9752 14.648 74.1061 15.7807 78.2037C17.0133 82.6677 19.2286 86.4322 22.4267 89.497C25.5915 92.4952 29.5059 94.644 34.1698 95.9432C35.0693 96.2097 35.4857 96.4596 35.4191 96.6928L33.9699 96.8427C29.1727 95.9099 24.9586 93.7945 21.3274 90.4964C17.6962 87.1984 15.2477 83.2507 13.9817 78.6534C12.8158 74.4559 12.6325 70.1251 13.4321 65.6611C14.2316 61.1638 15.9306 57.0662 18.529 53.3684Z" fill="#0D131A"/>
</svg>
